<?xml version="1.0" encoding="UTF-8" standalone="no"?>
<svg width="3699px" height="1863px" viewBox="0 0 3699 1863" version="1.1" xmlns="http://www.w3.org/2000/svg" xmlns:xlink="http://www.w3.org/1999/xlink" xmlns:sketch="http://www.bohemiancoding.com/sketch/ns">
    <!-- Generator: Sketch 3.2.2 (9983) - http://www.bohemiancoding.com/sketch -->
    <title>kz_logo</title>
    <desc>Created with Sketch.</desc>
    <defs></defs>
    <g id="Page-1" stroke="none" stroke-width="1" fill="none" fill-rule="evenodd" sketch:type="MSPage">
        <g id="Artboard-2" sketch:type="MSArtboardGroup" transform="translate(-794.000000, -546.000000)">
            <g id="koza" sketch:type="MSLayerGroup" transform="translate(2138.000000, 381.000000)">
                <path d="M266.0625,322.277344 L312.652344,303.164062 L669.882209,303.164062 L726.214844,324.289062 C726.214844,324.289062 569.542969,897.125 498.054688,897.125 C426.566406,897.125 266.0625,322.277344 266.0625,322.277344 Z" id="Path-17" fill="#000000" sketch:type="MSShapeGroup"></path>
                <path d="M249.492187,328.992188 C261.875,411.171882 380.085939,901.96875 492.85156,901.96875 C605.617182,901.96875 722.578123,408.585938 738.843748,321.359375 C755.109373,234.132813 754.300775,182.992189 738.843744,182.992188 C723.386713,182.992188 710.730469,236.769531 670.789057,316.0625 C657.531244,400.976562 544.015623,861.453125 493.851562,861.453125 C443.687502,861.453125 333.685549,394.84375 316.537111,316.0625 C278.453125,242.15625 270.46875,182.992188 258.617187,182.992188 C246.765625,182.992188 237.109375,246.812493 249.492187,328.992188 Z" id="Path-3" fill="#000000" sketch:type="MSShapeGroup"></path>
                <path d="M285.59375,313.570312 C493,234.911133 493,231.572266 697.148438,312.875 C700.027344,320.739258 697.054687,335.6875 697.054687,335.6875 L290.71875,338.296875 C290.71875,338.296875 285.671875,325.209961 285.59375,313.570312 Z" id="Path-4" fill="#000000" sketch:type="MSShapeGroup"></path>
                <g id="Path-3-+-Path-5" transform="translate(286.000000, 426.000000)" sketch:type="MSShapeGroup">
                    <path d="M67.9214291,32.6235618 C67.9214291,24.7402344 67.9214291,-0.119628908 34.1780635,-0.119628906 C0.434697848,-0.119628905 -0.0277896161,26.8689079 -0.0277896161,32.6235618 C-0.0277896161,38.3782157 0.434697848,66 34.1780635,66 C67.9214291,66 67.9214291,40.5068892 67.9214291,32.6235618 Z" id="Path-3" fill="#FFFFFF"></path>
                    <path d="M32.5915913,25.3613078 C32.5915913,25.3613078 20.327265,18.7849563 15.3604296,23.4213811 C10.3935942,28.057806 9.20934647,35.5611651 15.2202819,39.0973742 C21.2312174,42.6335833 32.5915913,37.3472832 32.5915913,37.3472832 C32.5915913,37.3472832 45.6477517,43.4732946 49.7891176,39.1888279 C53.9304835,34.9043612 54.8932983,29.224533 49.7891176,23.8828065 C44.6849369,18.54108 32.5915913,25.3613078 32.5915913,25.3613078 Z" id="Path-4" fill="#000000"></path>
                </g>
                <g id="Path-6-+-Path-6" transform="translate(631.000000, 426.000000)" sketch:type="MSShapeGroup">
                    <path d="M67.8203125,32.7712022 C67.8203125,25.7498016 67.8203125,-0.345703127 34.0769469,-0.345703125 C0.333581214,-0.345703123 -0.12890625,26.9508676 -0.12890625,32.7712022 C-0.12890625,38.5915369 0.333581214,66.5285826 34.0769469,66.5285826 C67.8203125,66.5285826 67.8203125,39.7926028 67.8203125,32.7712022 Z" id="Path-6" fill="#FFFFFF"></path>
                    <path d="M32.4904747,25.4260604 C32.4904747,25.4260604 20.2261484,18.7746497 15.259313,23.4639924 C10.2924776,28.1533351 9.10822984,35.7423339 15.1191653,39.3189035 C21.1301007,42.8954731 32.4904747,37.5488379 32.4904747,37.5488379 C32.4904747,37.5488379 45.5466351,43.7447685 49.688001,39.411401 C53.8293669,35.0780335 54.7921817,29.3333786 49.688001,23.9306843 C44.5838203,18.5279899 32.4904747,25.4260604 32.4904747,25.4260604 Z" id="Path-5" fill="#000000"></path>
                </g>
                <path d="M894.886826,391.736987 C894.886826,378.512297 834.802947,357.210673 809.224663,328.01251 C783.646379,298.814347 744.119051,289.763273 735.397882,321.099626 C726.676714,352.43598 757.779493,369.356646 775.631232,378.512299 C793.48297,387.667952 894.886826,404.961677 894.886826,391.736987 Z" id="Path-9" stroke="#000000" stroke-width="10" fill="#000000" sketch:type="MSShapeGroup" transform="translate(814.386826, 349.004566) scale(-1, 1) translate(-814.386826, -349.004566) "></path>
                <path d="M248.550674,382.748047 C248.550674,373.337279 192.175544,347.011304 163.672952,317.196568 C135.170361,287.381833 105.036599,290.743632 100.544917,317.196568 C96.0532348,343.649505 112.089987,358.203022 137.88147,370.475535 C163.672953,382.748048 248.550674,392.158815 248.550674,382.748047 Z" id="Path-10" stroke="#000000" stroke-width="10" fill="#000000" sketch:type="MSShapeGroup"></path>
            </g>
            <text id="Козметиум" sketch:type="MSTextLayer" font-family="Nautilus Pompilius" font-size="736" font-weight="normal" fill="#000000">
                <tspan x="792" y="2081">Козметиум</tspan>
            </text>
        </g>
    </g>
</svg>